<?xml version="1.0" encoding="UTF-8"?>
<svg width="194px" height="194px" viewBox="0 0 194 194" version="1.1" xmlns="http://www.w3.org/2000/svg" xmlns:xlink="http://www.w3.org/1999/xlink">
    <!-- Generator: Sketch 52.5 (67469) - http://www.bohemiancoding.com/sketch -->
    <title>Group 3</title>
    <desc>Created with Sketch.</desc>
    <defs>
        <filter x="-9.7%" y="-9.7%" width="119.3%" height="119.3%" filterUnits="objectBoundingBox" id="filter-1">
            <feOffset dx="0" dy="2" in="SourceAlpha" result="shadowOffsetOuter1"></feOffset>
            <feGaussianBlur stdDeviation="2" in="shadowOffsetOuter1" result="shadowBlurOuter1"></feGaussianBlur>
            <feColorMatrix values="0 0 0 0 0   0 0 0 0 0   0 0 0 0 0  0 0 0 0.5 0" type="matrix" in="shadowBlurOuter1" result="shadowMatrixOuter1"></feColorMatrix>
            <feMerge>
                <feMergeNode in="shadowMatrixOuter1"></feMergeNode>
                <feMergeNode in="SourceGraphic"></feMergeNode>
            </feMerge>
        </filter>
        <path d="M88,176 C136.601058,176 176,136.601058 176,88 C176,76.7233852 173.878951,65.9421679 170.014045,56.0335382 C157.221598,23.2369856 125.324443,0 88,0 C39.398942,0 0,39.398942 0,88 C0,136.601058 39.398942,176 88,176 Z" id="path-2"></path>
    </defs>
    <g id="Page-1" stroke="none" stroke-width="1" fill="none" fill-rule="evenodd">
        <g id="Artboard-Copy" transform="translate(-103.000000, -55.000000)">
            <g id="Group-3" transform="translate(112.000000, 62.000000)">
                <g id="Group-3-Copy" filter="url(#filter-1)">
                    <g id="Oval">
                        <use fill="#008489" fill-rule="evenodd" style="mix-blend-mode: screen;" xlink:href="#path-2"></use>
                        <use stroke="#FFFFFF" stroke-width="10" xlink:href="#path-2"></use>
                    </g>
                    <circle id="Oval-Copy-2" stroke="#484848" stroke-width="5" cx="88" cy="88" r="88"></circle>
                    <path d="M74.9365474,106.850873 L105.269214,106.261571 L89.9555556,136.888889 L74.9365474,106.850873 Z M67.9523412,92.8824602 L50.8444444,58.6666667 L129.066667,58.6666667 L118.779017,79.2419665 L67.9523412,92.8824602 Z" id="logo" stroke="#484848" stroke-width="5" fill="#FFFFFF"></path>
                </g>
            </g>
        </g>
    </g>
</svg>